<?xml version="1.0" encoding="UTF-8"?>
<svg width="16px" height="16px" viewBox="0 0 16 16" version="1.1" xmlns="http://www.w3.org/2000/svg" xmlns:xlink="http://www.w3.org/1999/xlink">
    <title>删除</title>
    <g id="页面-2" stroke="none" stroke-width="1" fill="none" fill-rule="evenodd">
        <g id="工单管理确定2备份" transform="translate(-1112.000000, -736.000000)">
            <g id="编组-31" transform="translate(868.000000, 656.000000)">
                <g id="编组-28" transform="translate(20.000000, 62.000000)">
                    <g id="图片" transform="translate(0.000000, 14.000000)">
                        <g id="删除" transform="translate(224.000000, 4.000000)">
                            <rect id="矩形" x="0" y="0" width="16" height="16"></rect>
                            <path d="M9.26017101,2.49164444 C9.46847976,2.49164444 9.67472604,2.55813333 9.87753488,2.69045925 C10.0803437,2.82278517 10.2212787,2.98314073 10.2996523,3.17152592 L10.8462049,4.4472 L13.2606614,4.4472 C13.3335351,4.4472 13.3933465,4.47001481 13.4394082,4.51564444 C13.4868448,4.56127407 13.5102194,4.61994073 13.5102194,4.69164444 L13.5102194,5.18053333 C13.5102194,5.25223704 13.4868448,5.31090371 13.4400957,5.35653333 C13.3929465,5.40244719 13.3275155,5.42731033 13.2599739,5.42497777 L12.5106124,5.42497777 L12.5106124,11.9337185 C12.5106124,12.3561185 12.3882396,12.7211556 12.143494,13.0294815 C11.898061,13.3378074 11.6038163,13.4916444 11.2600725,13.4916444 L4.76056462,13.4916444 C4.41682082,13.4916444 4.12257612,13.3430222 3.87714305,13.0444741 C3.63239746,12.7465778 3.51002466,12.3861037 3.51002466,11.9637037 L3.51002466,5.42497777 L2.76066317,5.42497777 C2.69303279,5.42705852 2.62761994,5.40196558 2.58054141,5.35588148 C2.53300272,5.30863448 2.50770057,5.24512989 2.51041768,5.17988148 L2.51041768,4.69099259 C2.51041768,4.62059259 2.53379226,4.56192592 2.58054141,4.51564444 C2.62773935,4.46979976 2.69313669,4.44494944 2.76066317,4.4472 L5.17374467,4.4472 L5.72098481,3.17152592 C5.79935839,2.98248888 5.94029336,2.82278517 6.1431022,2.69045925 C6.34659853,2.55813333 6.55284481,2.49164444 6.76046607,2.49164444 L9.26017101,2.49164444 Z M4.51031914,5.42497777 L4.51031914,11.9337185 C4.51031914,12.0451852 4.5288813,12.1488296 4.56531814,12.2426963 C4.60175499,12.336563 4.63956681,12.4056593 4.6780661,12.4486815 C4.7172529,12.4923556 4.7447524,12.5138667 4.76056462,12.5138667 L11.2600725,12.5138667 C11.2758847,12.5138667 11.3033842,12.4923556 11.342571,12.4486815 C11.4532908,12.2975984 11.5118958,12.1176881 11.5103191,11.9337185 L11.5103191,5.42497777 L4.51031914,5.42497777 Z M7.29189399,7.08524444 L7.29601891,7.13608888 L7.29601891,10.8027555 C7.29601891,10.8744593 7.27264434,10.9331259 7.22589519,10.9787555 C7.19188214,11.0126251 7.14729946,11.0352462 7.09870997,11.0432889 L7.04646092,11.0472 L6.54596994,11.0472 C6.42429598,11.0514699 6.31864716,10.9684137 6.30053686,10.8542519 L6.29641194,10.8027555 L6.29641194,7.13608888 C6.29641194,7.06438517 6.31978651,7.00571851 6.36653568,6.96008888 C6.40067386,6.9264958 6.44523261,6.90411521 6.49372088,6.8962074 L6.54596994,6.89164444 L7.04646092,6.89164444 C7.16825357,6.88771609 7.27380719,6.97097781 7.29189399,7.08524444 Z M9.79159893,7.08524444 L9.79572385,7.13608888 L9.79572385,10.8027555 C9.79572385,10.8744593 9.77234928,10.9331259 9.72560013,10.9787555 C9.69158708,11.0126251 9.6470044,11.0352462 9.59841491,11.0432889 L9.54616586,11.0472 L9.04636236,11.0472 C8.92453783,11.0515092 8.8186705,10.9685136 8.8002418,10.8542519 L8.79611688,10.8027555 L8.79611688,7.13608888 C8.79611688,7.06438517 8.81949145,7.00571851 8.86624062,6.96008888 C8.90040794,6.9265325 8.94495321,6.90415869 8.99342582,6.8962074 L9.04636236,6.89164444 L9.54616586,6.89164444 C9.66795851,6.88771609 9.77351213,6.97097781 9.79159893,7.08524444 Z M6.77627828,3.46942221 C6.72225655,3.48056638 6.67464044,3.51058743 6.64290569,3.55351111 L6.26066258,4.44654815 L9.7599745,4.44654815 L9.38529376,3.55416296 C9.35384821,3.5111291 9.3064855,3.48088041 9.25260865,3.46942221 L6.77627828,3.46942221 Z" id="形状" fill="#999999" fill-rule="nonzero"></path>
                        </g>
                    </g>
                </g>
            </g>
        </g>
    </g>
</svg>