<?xml version="1.0" encoding="UTF-8"?>
<svg width="16px" height="16px" viewBox="0 0 16 16" version="1.1" xmlns="http://www.w3.org/2000/svg" xmlns:xlink="http://www.w3.org/1999/xlink">
    <title>icon_删除</title>
    <g id="页面-2" stroke="none" stroke-width="1" fill="none" fill-rule="evenodd">
        <g id="工单管理确定2备份" transform="translate(-964.000000, -808.000000)">
            <g id="编组-31" transform="translate(868.000000, 656.000000)">
                <g id="编组-28" transform="translate(20.000000, 62.000000)">
                    <g id="图片备份-3" transform="translate(0.000000, 86.000000)">
                        <g id="icon_删除" transform="translate(76.000000, 4.000000)">
                            <rect id="矩形" x="0" y="0" width="16" height="16"></rect>
                            <path d="M8,13.5129453 C11.0375661,13.5129453 13.5,11.0505114 13.5,8.01294528 C13.5,4.97537916 11.0375661,2.51294528 8,2.51294528 C4.96243388,2.51294528 2.5,4.97537916 2.5,8.01294528 C2.5,11.0505114 4.96243388,13.5129453 8,13.5129453 Z" id="椭圆形" fill="#E6E6E6"></path>
                            <path d="M8.24987854,5.51198339 C8.37167119,5.50805504 8.47722481,5.59131676 8.49531161,5.70558339 L8.49943653,5.75642783 L8.49941333,7.53285 L10.3326848,7.53331667 C10.4043885,7.53331667 10.4630552,7.55669125 10.5086848,7.60344041 C10.5422412,7.63760774 10.564615,7.682153 10.5725663,7.73062561 L10.5771293,7.78356215 L10.5771293,8.28336565 C10.5810576,8.4051583 10.4977959,8.51071192 10.3835293,8.52879873 L10.3326848,8.53292365 L8.49941333,8.53285 L8.49943653,10.4230945 C8.49943653,10.4947982 8.47606196,10.5534649 8.42931281,10.5990945 C8.39529976,10.6329641 8.35071708,10.6555852 8.30212759,10.6636278 L8.24987854,10.667539 L7.74938756,10.667539 C7.6277136,10.6718088 7.52206479,10.5887526 7.50395448,10.4745908 L7.49982956,10.4230945 L7.49941333,8.53285 L5.66601815,8.53292365 C5.59431444,8.53292365 5.53564778,8.50954907 5.49001815,8.46279992 C5.45614859,8.42878688 5.43352749,8.38420419 5.42548482,8.33561471 L5.4215737,8.28336565 L5.4215737,7.78356215 C5.41726452,7.66173763 5.50026005,7.55587029 5.61452184,7.53744159 L5.66601815,7.53331667 L7.49941333,7.53285 L7.49982956,5.75642783 C7.49982956,5.68472413 7.52320413,5.62605746 7.5699533,5.58042783 C7.60409148,5.54683475 7.64865023,5.52445416 7.6971385,5.51654635 L7.74938756,5.51198339 L8.24987854,5.51198339 Z" id="形状结合" fill="#999999" fill-rule="nonzero" transform="translate(7.999338, 8.089773) rotate(-315.000000) translate(-7.999338, -8.089773) "></path>
                        </g>
                    </g>
                </g>
            </g>
        </g>
    </g>
</svg>