<?xml version="1.0" encoding="UTF-8"?>
<svg width="18px" height="18px" viewBox="0 0 18 18" version="1.1" xmlns="http://www.w3.org/2000/svg" xmlns:xlink="http://www.w3.org/1999/xlink">
    <title>dingdanguanli</title>
    <g id="页面3" stroke="none" stroke-width="1" fill="none" fill-rule="evenodd">
        <g id="首页备份" transform="translate(-31.000000, -207.000000)">
            <g id="编组-19" transform="translate(8.000000, 84.000000)">
                <g id="编组备份-3" transform="translate(20.000000, 120.000000)">
                    <g id="dingdanguanli" transform="translate(3.000000, 3.000000)">
                        <rect id="矩形" x="0" y="0" width="18" height="18"></rect>
                        <g id="订单-(1)" transform="translate(2.400000, 1.200000)" fill="#333333" fill-rule="nonzero">
                            <path d="M8.4,0 C9.18324019,0 9.84963909,0.50025704 10.0971116,1.19868599 L10.8,1.2 C12.0702549,1.2 13.1100212,2.18683903 13.1944631,3.43568127 L13.2,3.6 L13.2,13.2 C13.2,14.4702549 12.213161,15.5100212 10.9643187,15.5944631 L10.8,15.6 L2.4,15.6 C1.12974508,15.6 0.0899787563,14.613161 0.00553686671,13.3643187 L0,13.2 L0,3.6 C0,2.32974508 0.986839031,1.28997876 2.23568127,1.20553687 L2.4,1.2 L3.10288844,1.19868599 C3.35036091,0.50025704 4.01675981,0 4.8,0 L4.8,0 Z M3.1025318,2.40030653 L2.4,2.4 C1.77867966,2.4 1.26764746,2.87219968 1.20619546,3.47730697 L1.2,3.6 L1.2,13.2 C1.2,13.8213203 1.67219968,14.3323525 2.27730697,14.3938045 L2.4,14.4 L10.8,14.4 C11.4213203,14.4 11.9323525,13.9278003 11.9938045,13.322693 L12,13.2 L12,3.6 C12,2.97867966 11.5278003,2.46764746 10.922693,2.40619546 L10.8,2.4 L10.0974682,2.40030653 C9.85027983,3.09926183 9.18361675,3.6 8.4,3.6 L8.4,3.6 L4.8,3.6 C4.01638325,3.6 3.34972017,3.09926183 3.1025318,2.40030653 Z M8.85,9.59630166 C9.35,9.59630166 9.6,9.79630166 9.6,10.1963017 C9.6,10.5963017 9.35,10.7963017 8.85,10.7963017 L4.35,10.7963017 C3.85,10.7963017 3.6,10.5963017 3.6,10.1963017 C3.6,9.79630166 3.85,9.59630166 4.35,9.59630166 L8.85,9.59630166 Z M8.85,6.59630166 C9.35,6.59630166 9.6,6.79630166 9.6,7.19630166 C9.6,7.59630166 9.35,7.79630166 8.85,7.79630166 L4.35,7.79630166 C3.85,7.79630166 3.6,7.59630166 3.6,7.19630166 C3.6,6.79630166 3.85,6.59630166 4.35,6.59630166 L8.85,6.59630166 Z M8.4,1.2 L4.8,1.2 C4.46862915,1.2 4.2,1.46862915 4.2,1.8 C4.2,2.13137085 4.46862915,2.4 4.8,2.4 L4.8,2.4 L8.4,2.4 C8.73137085,2.4 9,2.13137085 9,1.8 C9,1.46862915 8.73137085,1.2 8.4,1.2 L8.4,1.2 Z" id="形状结合"></path>
                        </g>
                    </g>
                </g>
            </g>
        </g>
    </g>
</svg>