<?xml version="1.0" standalone="no"?><!DOCTYPE svg PUBLIC "-//W3C//DTD SVG 1.1//EN" "http://www.w3.org/Graphics/SVG/1.1/DTD/svg11.dtd"><svg t="1646365332134" class="icon" viewBox="0 0 1024 1024" version="1.1" xmlns="http://www.w3.org/2000/svg" p-id="5176" xmlns:xlink="http://www.w3.org/1999/xlink" width="48" height="48"><defs><style type="text/css"></style></defs><path d="M706.654815 732.065185 323.034074 732.065185c-9.481481 0-17.256296 8.533333-17.256296 18.962963 0 10.42963 7.68 18.962963 17.256296 18.962963l383.620741 0c9.481481 0 17.256296-8.533333 17.256296-18.962963C723.911111 740.503704 716.231111 732.065185 706.654815 732.065185z" p-id="5177"></path><path d="M507.638519 695.371852c1.232593 1.232593 2.844444 1.896296 4.740741 1.991111 1.706667 0.094815 3.318519 0.094815 5.025185 0 1.896296-0.094815 3.508148-0.758519 4.740741-1.991111l158.625185-158.625185c3.887407-3.887407 1.896296-12.325926-4.456296-18.773333-6.447407-6.447407-14.791111-8.438519-18.773333-4.456296L532.385185 638.672593 532.385185 271.54963c0-9.671111-7.86963-17.540741-17.540741-17.540741l0 0c-9.671111 0-17.540741 7.86963-17.540741 17.540741l0 367.122963L372.242963 513.611852c-3.887407-3.887407-12.325926-1.896296-18.773333 4.456296-6.447407 6.447407-8.438519 14.791111-4.456296 18.773333L507.638519 695.371852z" p-id="5178"></path></svg>